<svg xmlns="http://www.w3.org/2000/svg" viewBox="0 0 209 209">
<g id="Group_352" data-name="Group 352" transform="translate(-5 -3471)">
<g id="Group_18" data-name="Group 18" transform="translate(51.598 3535.942)">
<path id="Fill_12" data-name="Fill 12" d="M337.54,457.2h62.5a3.576,3.576,0,0,0,3.57-3.567V437.142a6.135,6.135,0,0,1,6.129-6.129h12.43a3.56,3.56,0,0,0,3.554-3.557V408.4a3.567,3.567,0,0,0-3.554-3.57H409.737a6.136,6.136,0,0,1-6.129-6.129V382.216a3.567,3.567,0,0,0-3.57-3.554h-62.5a3.567,3.567,0,0,0-3.57,3.554L333.96,398.7a6.136,6.136,0,0,1-6.129,6.129H315.4a3.576,3.576,0,0,0-3.57,3.57v19.056a3.569,3.569,0,0,0,3.57,3.558h12.428a6.136,6.136,0,0,1,6.129,6.129l.009,16.485A3.576,3.576,0,0,0,337.54,457.2Zm57.931-52.366a6.141,6.141,0,0,1,6.129,6.142v13.914a6.136,6.136,0,0,1-6.129,6.129H341.729a6.147,6.147,0,0,1-6.115-6.021V410.867a6.154,6.154,0,0,1,6.115-6.036Z" transform="translate(-311.834 -378.662)" fill="none" stroke="#ff004f" stroke-width="3"/>
<path id="Fill_14" data-name="Fill 14" d="M400.917,416.388a5.523,5.523,0,1,1-.024,0h.024" transform="translate(-325.694 -382.658)" fill="none" stroke="#ff004f" stroke-width="3"/>
<path id="Fill_16" data-name="Fill 16" d="M348.751,416.388a5.535,5.535,0,1,1-5.536,5.536,5.535,5.535,0,0,1,5.536-5.536h0" transform="translate(-310.149 -382.658)" fill="none" stroke="#ff004f" stroke-width="3"/>
</g>
<g id="Ellipse_36" data-name="Ellipse 36" transform="translate(5 3471)" fill="none" stroke="#a8f0cb" stroke-width="3">
<circle cx="104.5" cy="104.5" r="104.5" stroke="none"/>
<circle cx="104.5" cy="104.5" r="103" fill="none"/>
</g>
</g>
</svg>